{
  "accessors": [
    {
      "bufferView": 0,
      "componentType": 5123,
      "count": 144,
      "type": "SCALAR"
    },
    {
      "bufferView": 1,
      "componentType": 5123,
      "count": 378,
      "type": "SCALAR"
    },
    {
      "bufferView": 2,
      "componentType": 5123,
      "count": 252,
      "type": "SCALAR"
    },
    {
      "bufferView": 3,
      "componentType": 5123,
      "count": 204,
      "type": "SCALAR"
    },
    {
      "bufferView": 4,
      "componentType": 5126,
      "count": 60,
      "max": [
        0.02022506669163704,
        6.426242180168629E-4,
        0.04446146637201309
      ],
      "min": [
        -0.02022506669163704,
        -6.426282925531268E-4,
        -0.04446147382259369
      ],
      "type": "VEC3"
    },
    {
      "bufferView": 5,
      "componentType": 5126,
      "count": 118,
      "max": [
        0.029401496052742004,
        0.002137174131348729,
        0.048835087567567825
      ],
      "min": [
        -0.029401496052742004,
        -0.0021371750626713037,
        -0.048835087567567825
      ],
      "type": "VEC3"
    },
    {
      "bufferView": 6,
      "componentType": 5126,
      "count": 120,
      "max": [
        0.029401496052742004,
        0.01837645098567009,
        0.04883016645908356
      ],
      "min": [
        -0.029401496052742004,
        -0.01837645098567009,
        -0.04883016645908356
      ],
      "type": "VEC3"
    },
    {
      "bufferView": 7,
      "componentType": 5126,
      "count": 92,
      "max": [
        0.0176706425845623,
        8.179707219824195E-4,
        0.038057971745729446
      ],
      "min": [
        -0.0176706425845623,
        -8.179716533049941E-4,
        -0.038057971745729446
      ],
      "type": "VEC3"
    },
    {
      "bufferView": 8,
      "componentType": 5126,
      "count": 60,
      "type": "VEC3"
    },
    {
      "bufferView": 9,
      "componentType": 5126,
      "count": 118,
      "type": "VEC3"
    },
    {
      "bufferView": 10,
      "componentType": 5126,
      "count": 120,
      "type": "VEC3"
    },
    {
      "bufferView": 11,
      "componentType": 5126,
      "count": 92,
      "type": "VEC3"
    },
    {
      "bufferView": 12,
      "componentType": 5126,
      "count": 60,
      "type": "VEC2"
    },
    {
      "bufferView": 13,
      "componentType": 5126,
      "count": 118,
      "type": "VEC2"
    },
    {
      "bufferView": 14,
      "componentType": 5126,
      "count": 120,
      "type": "VEC2"
    },
    {
      "bufferView": 15,
      "componentType": 5126,
      "count": 92,
      "type": "VEC2"
    },
    {
      "bufferView": 16,
      "componentType": 5126,
      "count": 60,
      "type": "VEC4"
    },
    {
      "bufferView": 17,
      "componentType": 5126,
      "count": 118,
      "type": "VEC4"
    },
    {
      "bufferView": 18,
      "componentType": 5126,
      "count": 120,
      "type": "VEC4"
    },
    {
      "bufferView": 19,
      "componentType": 5126,
      "count": 92,
      "type": "VEC4"
    }
  ],
  "asset": {
    "generator": "Microsoft GLTF Exporter 2.4.2.8",
    "version": "2.0"
  },
  "bufferViews": [
    {
      "buffer": 0,
      "byteLength": 288,
      "byteOffset": 0,
      "target": 34963
    },
    {
      "buffer": 0,
      "byteLength": 756,
      "byteOffset": 288,
      "target": 34963
    },
    {
      "buffer": 0,
      "byteLength": 504,
      "byteOffset": 1044,
      "target": 34963
    },
    {
      "buffer": 0,
      "byteLength": 408,
      "byteOffset": 1548,
      "target": 34963
    },
    {
      "buffer": 0,
      "byteLength": 720,
      "byteOffset": 1956,
      "target": 34962
    },
    {
      "buffer": 0,
      "byteLength": 1416,
      "byteOffset": 2676,
      "target": 34962
    },
    {
      "buffer": 0,
      "byteLength": 1440,
      "byteOffset": 4092,
      "target": 34962
    },
    {
      "buffer": 0,
      "byteLength": 1104,
      "byteOffset": 5532,
      "target": 34962
    },
    {
      "buffer": 0,
      "byteLength": 720,
      "byteOffset": 6636,
      "target": 34962
    },
    {
      "buffer": 0,
      "byteLength": 1416,
      "byteOffset": 7356,
      "target": 34962
    },
    {
      "buffer": 0,
      "byteLength": 1440,
      "byteOffset": 8772,
      "target": 34962
    },
    {
      "buffer": 0,
      "byteLength": 1104,
      "byteOffset": 10212,
      "target": 34962
    },
    {
      "buffer": 0,
      "byteLength": 480,
      "byteOffset": 11316,
      "target": 34962
    },
    {
      "buffer": 0,
      "byteLength": 944,
      "byteOffset": 11796,
      "target": 34962
    },
    {
      "buffer": 0,
      "byteLength": 960,
      "byteOffset": 12740,
      "target": 34962
    },
    {
      "buffer": 0,
      "byteLength": 736,
      "byteOffset": 13700,
      "target": 34962
    },
    {
      "buffer": 0,
      "byteLength": 960,
      "byteOffset": 14436,
      "target": 34962
    },
    {
      "buffer": 0,
      "byteLength": 1888,
      "byteOffset": 15396,
      "target": 34962
    },
    {
      "buffer": 0,
      "byteLength": 1920,
      "byteOffset": 17284,
      "target": 34962
    },
    {
      "buffer": 0,
      "byteLength": 1472,
      "byteOffset": 19204,
      "target": 34962
    },
    {
      "buffer": 0,
      "byteLength": 1,
      "byteOffset": 0
    },
    {
      "buffer": 0,
      "byteLength": 1,
      "byteOffset": 0
    },
    {
      "buffer": 0,
      "byteLength": 1,
      "byteOffset": 0
    },
    {
      "buffer": 0,
      "byteLength": 1,
      "byteOffset": 0
    },
    {
      "buffer": 0,
      "byteLength": 1,
      "byteOffset": 0
    },
    {
      "buffer": 0,
      "byteLength": 1,
      "byteOffset": 0
    },
    {
      "buffer": 0,
      "byteLength": 1,
      "byteOffset": 0
    },
    {
      "buffer": 0,
      "byteLength": 1,
      "byteOffset": 0
    },
    {
      "buffer": 0,
      "byteLength": 1,
      "byteOffset": 0
    },
    {
      "buffer": 0,
      "byteLength": 1,
      "byteOffset": 0
    },
    {
      "buffer": 0,
      "byteLength": 1,
      "byteOffset": 0
    },
    {
      "buffer": 0,
      "byteLength": 1,
      "byteOffset": 0
    },
    {
      "buffer": 0,
      "byteLength": 1,
      "byteOffset": 0
    },
    {
      "buffer": 0,
      "byteLength": 1,
      "byteOffset": 0
    },
    {
      "buffer": 0,
      "byteLength": 1,
      "byteOffset": 0
    },
    {
      "buffer": 0,
      "byteLength": 1,
      "byteOffset": 0
    }
  ],
  "buffers": [
    {
      "byteLength": 20700,
      "uri": "Untitled.bin"
    }
  ],
  "extensionsUsed": [
    "KHR_materials_pbrSpecularGlossiness"
  ],
  "images": [
    {
      "uri": "image0.png"
    },
    {
      "uri": "image1.png"
    },
    {
      "uri": "image2.png"
    },
    {
      "uri": "image3.png"
    },
    {
      "uri": "image4.png"
    },
    {
      "uri": "image5.png"
    },
    {
      "uri": "image6.png"
    },
    {
      "uri": "image7.png"
    },
    {
      "uri": "image8.png"
    },
    {
      "uri": "image9.png"
    },
    {
      "uri": "image10.png"
    },
    {
      "uri": "image11.png"
    },
    {
      "uri": "image12.png"
    },
    {
      "uri": "image13.png"
    },
    {
      "uri": "image14.png"
    },
    {
      "uri": "image15.png"
    }
  ],
  "materials": [
    {
      "alphaMode": "MASK",
      "doubleSided": true,
      "extensions": {
        "KHR_materials_pbrSpecularGlossiness": {
          "diffuseTexture": {
            "index": 0
          },
          "specularGlossinessTexture": {
            "index": 1
          }
        }
      },
      "extras": {
        "MSFT_sRGBFactors": false
      },
      "name": "52",
      "pbrMetallicRoughness": {
        "baseColorTexture": {
          "index": 2
        },
        "metallicRoughnessTexture": {
          "index": 3
        }
      }
    },
    {
      "alphaMode": "MASK",
      "doubleSided": true,
      "extensions": {
        "KHR_materials_pbrSpecularGlossiness": {
          "diffuseTexture": {
            "index": 4
          },
          "specularGlossinessTexture": {
            "index": 5
          }
        }
      },
      "extras": {
        "MSFT_sRGBFactors": false
      },
      "name": "53",
      "pbrMetallicRoughness": {
        "baseColorTexture": {
          "index": 6
        },
        "metallicRoughnessTexture": {
          "index": 7
        }
      }
    },
    {
      "alphaMode": "MASK",
      "doubleSided": true,
      "extensions": {
        "KHR_materials_pbrSpecularGlossiness": {
          "diffuseTexture": {
            "index": 8
          },
          "specularGlossinessTexture": {
            "index": 9
          }
        }
      },
      "extras": {
        "MSFT_sRGBFactors": false
      },
      "name": "54",
      "pbrMetallicRoughness": {
        "baseColorTexture": {
          "index": 10
        },
        "metallicRoughnessTexture": {
          "index": 11
        }
      }
    },
    {
      "alphaMode": "MASK",
      "doubleSided": true,
      "extensions": {
        "KHR_materials_pbrSpecularGlossiness": {
          "diffuseTexture": {
            "index": 12
          },
          "specularGlossinessTexture": {
            "index": 13
          }
        }
      },
      "extras": {
        "MSFT_sRGBFactors": false
      },
      "name": "55",
      "pbrMetallicRoughness": {
        "baseColorTexture": {
          "index": 14
        },
        "metallicRoughnessTexture": {
          "index": 15
        }
      }
    }
  ],
  "meshes": [
    {
      "name": "mesh_id32",
      "primitives": [
        {
          "attributes": {
            "POSITION": 4,
            "NORMAL": 8,
            "TEXCOORD_0": 12,
            "COLOR_0": 16
          },
          "indices": 0,
          "material": 0
        }
      ]
    },
    {
      "name": "mesh_id34",
      "primitives": [
        {
          "attributes": {
            "POSITION": 5,
            "NORMAL": 9,
            "TEXCOORD_0": 13,
            "COLOR_0": 17
          },
          "indices": 1,
          "material": 1
        }
      ]
    },
    {
      "name": "mesh_id36",
      "primitives": [
        {
          "attributes": {
            "POSITION": 6,
            "NORMAL": 10,
            "TEXCOORD_0": 14,
            "COLOR_0": 18
          },
          "indices": 2,
          "material": 2
        }
      ]
    },
    {
      "name": "mesh_id38",
      "primitives": [
        {
          "attributes": {
            "POSITION": 7,
            "NORMAL": 11,
            "TEXCOORD_0": 15,
            "COLOR_0": 19
          },
          "indices": 3,
          "material": 3
        }
      ]
    }
  ],
  "nodes": [
    {
      "mesh": 0,
      "name": "node_id31",
      "rotation": [
        0.7071067690849304,
        6.54040555048141E-9,
        3.906228229766384E-9,
        -0.7071067690849304
      ],
      "scale": [
        -5226.2705078125,
        5226.27197265625,
        5226.27197265625
      ],
      "translation": [
        1.388216478517279E-4,
        -23.63229751586914,
        337.18878173828125
      ]
    },
    {
      "children": [
        0,
        3,
        4,
        5
      ],
      "name": "node_id39",
      "rotation": [
        -0.06837403774261475,
        1.043842678960516E-9,
        -4.032074230053695E-9,
        0.9976597428321838
      ],
      "scale": [
        6.521558971144259E-4,
        6.521561299450696E-4,
        6.521558971144259E-4
      ],
      "translation": [
        -0.07536124438047409,
        0.13347575068473816,
        0.17971082031726837
      ]
    },
    {
      "children": [
        1
      ],
      "name": "root"
    },
    {
      "mesh": 1,
      "name": "node_id33",
      "rotation": [
        0.7071067690849304,
        6.54040555048141E-9,
        3.906228229766384E-9,
        -0.7071067690849304
      ],
      "scale": [
        -5226.2705078125,
        5226.27197265625,
        5226.27197265625
      ],
      "translation": [
        2.3967200831975788E-4,
        0.7745431661605835,
        344.3487548828125
      ]
    },
    {
      "mesh": 2,
      "name": "node_id35",
      "rotation": [
        0.7071067690849304,
        6.54040555048141E-9,
        3.906228229766384E-9,
        -0.7071067690849304
      ],
      "scale": [
        -5226.2705078125,
        5226.27197265625,
        5226.27197265625
      ],
      "translation": [
        2.4347477301489562E-4,
        0.7745519280433655,
        252.52316284179688
      ]
    },
    {
      "mesh": 3,
      "name": "node_id37",
      "rotation": [
        0.7071067690849304,
        6.54040555048141E-9,
        3.906228229766384E-9,
        -0.7071067690849304
      ],
      "scale": [
        -5226.2705078125,
        5226.27197265625,
        5226.27197265625
      ],
      "translation": [
        1.983592810574919E-4,
        -4.60857629776001,
        342.10150146484375
      ]
    }
  ],
  "samplers": [
    {
      "minFilter": 9985
    }
  ],
  "scene": 0,
  "scenes": [
    {
      "nodes": [
        2
      ]
    }
  ],
  "textures": [
    {
      "name": "texture5",
      "sampler": 0,
      "source": 0
    },
    {
      "name": "texture6",
      "sampler": 0,
      "source": 1
    },
    {
      "name": "52_bc",
      "sampler": 0,
      "source": 2
    },
    {
      "name": "52_mr",
      "sampler": 0,
      "source": 3
    },
    {
      "name": "texture7",
      "sampler": 0,
      "source": 4
    },
    {
      "name": "texture8",
      "sampler": 0,
      "source": 5
    },
    {
      "name": "53_bc",
      "sampler": 0,
      "source": 6
    },
    {
      "name": "53_mr",
      "sampler": 0,
      "source": 7
    },
    {
      "name": "texture9",
      "sampler": 0,
      "source": 8
    },
    {
      "name": "texture10",
      "sampler": 0,
      "source": 9
    },
    {
      "name": "54_bc",
      "sampler": 0,
      "source": 10
    },
    {
      "name": "54_mr",
      "sampler": 0,
      "source": 11
    },
    {
      "name": "texture11",
      "sampler": 0,
      "source": 12
    },
    {
      "name": "texture12",
      "sampler": 0,
      "source": 13
    },
    {
      "name": "55_bc",
      "sampler": 0,
      "source": 14
    },
    {
      "name": "55_mr",
      "sampler": 0,
      "source": 15
    }
  ]
}