<svg width="32" height="33" viewBox="0 0 32 33" fill="none" xmlns="http://www.w3.org/2000/svg">
<path d="M14.3267 14.5444L16.7749 13.2642H17.8193V25H14.3267V14.5444ZM14.1807 9.49072C14.1807 9.25863 14.2293 9.03776 14.3267 8.82812C14.424 8.61849 14.5588 8.4388 14.731 8.28906C14.9032 8.13932 15.1016 8.01953 15.3262 7.92969C15.5508 7.83984 15.7941 7.79492 16.0562 7.79492C16.3182 7.79492 16.5615 7.83984 16.7861 7.92969C17.0182 8.01953 17.2166 8.13932 17.3813 8.28906C17.5535 8.4388 17.6883 8.61849 17.7856 8.82812C17.883 9.03776 17.9316 9.25863 17.9316 9.49072C17.9316 9.72282 17.883 9.94368 17.7856 10.1533C17.6883 10.3555 17.5535 10.5314 17.3813 10.6812C17.2166 10.8309 17.0182 10.9507 16.7861 11.0405C16.5615 11.1304 16.3182 11.1753 16.0562 11.1753C15.7941 11.1753 15.5508 11.1304 15.3262 11.0405C15.1016 10.9507 14.9032 10.8309 14.731 10.6812C14.5588 10.5314 14.424 10.3555 14.3267 10.1533C14.2293 9.94368 14.1807 9.72282 14.1807 9.49072Z" fill="black"/>
<path d="M31 16.5C31 25.0896 24.2555 32 16 32C7.74451 32 1 25.0896 1 16.5C1 7.91036 7.74451 1 16 1C24.2555 1 31 7.91036 31 16.5Z" stroke="black" stroke-width="2"/>
</svg>
