<?xml version="1.0" encoding="utf-8"?>
<!-- Generator: Adobe Illustrator 24.0.3, SVG Export Plug-In . SVG Version: 6.00 Build 0)  -->
<svg version="1.1" id="Capa_1" xmlns="http://www.w3.org/2000/svg" xmlns:xlink="http://www.w3.org/1999/xlink" x="0px" y="0px"
	 viewBox="0 0 448.1 448.1" style="enable-background:new 0 0 448.1 448.1;" xml:space="preserve">
<style type="text/css">
	.st0{fill:#FFFFFF;}
</style>
<path class="st0" d="M352,16.1c0-6.1-3.5-11.8-9-14.4c-5.8-2.9-12.2-1.9-17,1.9l-141.8,113L352,284.2V16.1z"/>
<path class="st0" d="M443.3,420.7l-416-416C21.1-1.5,11-1.5,4.7,4.7s-6.2,16.4,0,22.6l100.7,100.7H96c-9.9,0-18.6,4.5-24.3,11.5
	c-4.8,5.4-7.7,12.8-7.7,20.5v128c0,17.6,14.4,32,32,32h74.2l155.8,124.5c2.9,2.2,6.4,3.5,9.9,3.5c2.2,0,4.8-0.6,7-1.6
	c5.4-2.6,9-8.3,9-14.4v-57.4l68.7,68.7c3.1,3.1,7.2,4.7,11.3,4.7s8.2-1.6,11.3-4.7C449.6,437.1,449.6,427,443.3,420.7z"/>
</svg>
